<svg xmlns="http://www.w3.org/2000/svg" viewBox="0 0 512 512" width="512" height="512">
  <!-- Main circle background -->
  <circle cx="256" cy="256" r="250" fill="#4361ee" />
  
  <!-- Abstract address book design -->
  <rect x="136" y="126" width="240" height="260" rx="20" fill="#ffffff" />
  
  <!-- Address book binding/spine -->
  <rect x="136" y="126" width="30" height="260" rx="10" fill="#72efdd" />
  
  <!-- Contact card lines -->
  <line x1="196" y1="186" x2="346" y2="186" stroke="#4361ee" stroke-width="16" stroke-linecap="round" />
  <line x1="196" y1="246" x2="346" y2="246" stroke="#4361ee" stroke-width="16" stroke-linecap="round" />
  <line x1="196" y1="306" x2="346" y2="306" stroke="#4361ee" stroke-width="16" stroke-linecap="round" />
  
  <!-- Tabs -->
  <path d="M166 186 a10,10 0 0 1 10,-10 h10 v20 h-10 a10,10 0 0 1 -10,-10 z" fill="#ffffff" />
  <path d="M166 246 a10,10 0 0 1 10,-10 h10 v20 h-10 a10,10 0 0 1 -10,-10 z" fill="#ffffff" />
  <path d="M166 306 a10,10 0 0 1 10,-10 h10 v20 h-10 a10,10 0 0 1 -10,-10 z" fill="#ffffff" />
  
  <!-- Decorative accent circle -->
  <circle cx="350" cy="150" r="20" fill="#72efdd" />
</svg>